<svg width="64" height="64" viewBox="0 0 64 64" xmlns="http://www.w3.org/2000/svg">
  <defs>
    
        <symbol id="symbol-kynz9fbpq-pattern" viewBox="0 0 64 64">
        <path d="M 32.00,3.36 C 33.28,3.38 34.47,4.65 35.81,4.94 C 37.14,5.23 38.69,4.80 40.03,5.11 C 41.36,5.42 42.53,6.30 43.81,6.78 C 45.09,7.26 46.54,7.34 47.73,7.98 C 48.92,8.61 50.14,9.51 50.96,10.60 C 51.79,11.69 51.90,13.40 52.68,14.54 C 53.45,15.67 54.65,16.45 55.61,17.42 C 56.58,18.39 57.95,19.19 58.47,20.37 C 58.98,21.54 58.62,23.11 58.71,24.47 C 58.80,25.84 58.72,27.23 59.00,28.57 C 59.28,29.91 60.08,31.18 60.38,32.51 C 60.68,33.85 61.02,35.30 60.80,36.59 C 60.58,37.89 59.62,39.06 59.06,40.31 C 58.50,41.55 57.91,42.78 57.46,44.08 C 57.02,45.38 56.98,46.86 56.40,48.10 C 55.82,49.34 55.01,50.63 53.99,51.51 C 52.97,52.38 51.45,52.61 50.29,53.34 C 49.14,54.06 48.20,55.14 47.04,55.86 C 45.88,56.59 44.49,56.94 43.34,57.69 C 42.20,58.44 41.41,59.97 40.20,60.37 C 38.99,60.78 37.46,60.16 36.10,60.12 C 34.73,60.07 33.37,60.01 32.00,60.10 C 30.63,60.18 29.27,60.60 27.90,60.64 C 26.54,60.69 25.03,60.83 23.80,60.37 C 22.58,59.91 21.67,58.63 20.54,57.87 C 19.41,57.10 18.18,56.49 17.01,55.77 C 15.85,55.06 14.71,54.30 13.54,53.59 C 12.38,52.88 10.77,52.53 10.01,51.51 C 9.25,50.49 9.52,48.73 8.97,47.48 C 8.41,46.23 7.47,45.16 6.68,44.02 C 5.89,42.88 4.81,41.87 4.23,40.63 C 3.65,39.39 3.16,37.93 3.20,36.59 C 3.24,35.26 4.28,33.99 4.47,32.64 C 4.66,31.28 4.25,29.84 4.34,28.48 C 4.42,27.11 4.77,25.78 4.97,24.43 C 5.17,23.07 5.07,21.63 5.53,20.37 C 5.99,19.10 6.82,17.86 7.72,16.83 C 8.62,15.81 9.87,15.09 10.93,14.20 C 11.99,13.31 13.19,12.54 14.08,11.50 C 14.97,10.47 15.21,8.63 16.27,7.98 C 17.33,7.32 19.11,7.95 20.43,7.59 C 21.75,7.24 22.90,6.31 24.19,5.85 C 25.48,5.39 26.85,5.23 28.16,4.81 C 29.46,4.40 30.72,3.34 32.00,3.36" fill="hsl(231, 48%, 58%)" stroke="hsl(231, 48%, 20%)" stroke-width="2" transform="translate(0, 0)" />
        </symbol>
    
        <symbol id="symbol-tmz54hpu2-pattern" viewBox="0 0 64 64">
        <path d="M4.48,21.67 C3.91,18.79 2.92,13.86 8.89,13.78 C14.86,13.69 36.80,18.76 40.32,21.15 C43.84,23.55 34.69,26.52 30.01,28.16 C25.34,29.81 16.54,32.10 12.29,31.02 C8.03,29.94 5.05,24.54 4.48,21.67Z" fill="hsl(231, 48%, 79%)" stroke="hsl(231, 48%, 20%)" stroke-width="2" transform="translate(9.600000000000001, 9.600000000000001)" />
        </symbol>
    
  </defs>
  
  
            <use href="#symbol-kynz9fbpq-pattern" x="0" y="0" width="64" height="64" />
            <use href="#symbol-kynz9fbpq-pattern" x="0" y="0" width="64" height="64" transform="translate(64, 0) scale(-1, 1)" />
        
            <use href="#symbol-tmz54hpu2-pattern" x="0" y="0" width="64" height="64" />
            <use href="#symbol-tmz54hpu2-pattern" x="0" y="0" width="64" height="64" transform="translate(64, 0) scale(-1, 1)" />
        
</svg>