<svg width="64" height="64" viewBox="0 0 64 64" xmlns="http://www.w3.org/2000/svg">
  <defs>
    
        <symbol id="symbol-y5w853j5n-pattern" viewBox="0 0 64 64">
        <path d="M 32.00,3.20 C 32.50,3.20 32.93,4.61 33.50,5.21 C 34.07,5.81 34.82,6.22 35.42,6.79 C 36.02,7.36 36.47,8.08 37.08,8.63 C 37.70,9.18 38.37,9.88 39.12,10.09 C 39.87,10.29 40.78,10.02 41.59,9.86 C 42.40,9.70 43.16,9.19 43.99,9.13 C 44.81,9.07 45.72,9.56 46.54,9.49 C 47.36,9.42 48.48,8.42 48.93,8.70 C 49.37,8.98 49.14,10.34 49.21,11.16 C 49.28,11.99 49.22,12.84 49.34,13.66 C 49.45,14.48 49.69,15.27 49.90,16.07 C 50.12,16.87 50.16,17.85 50.64,18.46 C 51.12,19.07 52.02,19.38 52.77,19.73 C 53.52,20.08 54.41,20.17 55.14,20.54 C 55.87,20.92 56.47,21.56 57.18,21.99 C 57.89,22.41 59.15,22.52 59.39,23.10 C 59.63,23.68 59.05,24.77 58.64,25.49 C 58.23,26.21 57.40,26.72 56.93,27.41 C 56.46,28.10 56.14,28.86 55.83,29.63 C 55.51,30.39 54.98,31.24 55.04,32.00 C 55.10,32.76 55.80,33.47 56.21,34.19 C 56.62,34.91 57.21,35.53 57.49,36.31 C 57.77,37.10 57.56,38.12 57.88,38.88 C 58.19,39.65 59.51,40.38 59.39,40.90 C 59.27,41.42 57.87,41.56 57.16,41.98 C 56.45,42.40 55.87,43.07 55.11,43.41 C 54.36,43.75 53.38,43.66 52.63,44.02 C 51.89,44.37 51.02,44.88 50.64,45.54 C 50.26,46.21 50.41,47.18 50.35,48.01 C 50.28,48.83 50.44,49.70 50.25,50.50 C 50.05,51.31 49.39,52.03 49.18,52.83 C 48.96,53.63 49.37,55.01 48.93,55.30 C 48.49,55.59 47.35,54.70 46.53,54.56 C 45.72,54.41 44.88,54.47 44.05,54.42 C 43.22,54.38 42.39,54.37 41.57,54.28 C 40.75,54.20 39.85,53.72 39.12,53.91 C 38.39,54.11 37.79,54.91 37.17,55.46 C 36.55,56.00 35.94,56.56 35.40,57.19 C 34.86,57.82 34.51,58.64 33.94,59.24 C 33.37,59.84 32.65,60.79 32.00,60.80 C 31.35,60.81 30.63,59.84 30.02,59.29 C 29.41,58.73 28.91,58.06 28.33,57.47 C 27.75,56.89 27.11,56.36 26.53,55.77 C 25.96,55.17 25.56,54.13 24.88,53.91 C 24.20,53.69 23.27,54.31 22.46,54.46 C 21.64,54.60 20.83,54.74 20.00,54.80 C 19.18,54.86 18.33,54.75 17.51,54.84 C 16.69,54.92 15.63,55.62 15.07,55.30 C 14.52,54.98 14.29,53.76 14.18,52.94 C 14.08,52.12 14.57,51.20 14.44,50.38 C 14.32,49.57 13.60,48.85 13.42,48.05 C 13.24,47.24 13.70,46.22 13.36,45.54 C 13.02,44.87 12.07,44.45 11.38,43.99 C 10.68,43.54 9.99,43.09 9.20,42.82 C 8.41,42.54 7.41,42.66 6.65,42.34 C 5.88,42.02 4.74,41.50 4.61,40.90 C 4.47,40.30 5.41,39.45 5.84,38.74 C 6.27,38.04 6.91,37.43 7.20,36.65 C 7.49,35.88 7.29,34.86 7.59,34.09 C 7.88,33.31 8.89,32.73 8.96,32.00 C 9.03,31.27 8.42,30.42 8.01,29.71 C 7.60,28.99 6.87,28.43 6.48,27.70 C 6.10,26.97 6.00,26.10 5.69,25.33 C 5.38,24.56 4.43,23.67 4.61,23.10 C 4.79,22.53 6.04,22.28 6.77,21.89 C 7.50,21.51 8.25,21.16 8.98,20.77 C 9.71,20.38 10.41,19.94 11.14,19.55 C 11.87,19.16 12.93,19.05 13.36,18.46 C 13.79,17.87 13.60,16.82 13.73,16.01 C 13.86,15.19 14.00,14.38 14.13,13.56 C 14.25,12.75 14.33,11.92 14.49,11.11 C 14.65,10.30 14.57,8.98 15.07,8.70 C 15.57,8.42 16.65,9.36 17.47,9.41 C 18.30,9.46 19.20,9.01 20.03,9.00 C 20.87,8.98 21.68,9.16 22.49,9.34 C 23.29,9.52 24.20,10.27 24.88,10.09 C 25.56,9.91 25.92,8.79 26.54,8.24 C 27.16,7.70 27.96,7.33 28.62,6.83 C 29.28,6.32 29.94,5.82 30.50,5.21 C 31.07,4.61 31.50,3.20 32.00,3.20" fill="hsl(26, 50%, 57%)" stroke="hsl(26, 50%, 15%)" stroke-width="2" transform="translate(0, 0)" />
        </symbol>
    
        <symbol id="symbol-omrexbu9h-pattern" viewBox="0 0 64 64">
        <path d="M16.80,4.48 C18.95,2.51 28.55,6.79 31.42,9.85 C34.28,12.91 37.41,17.75 33.98,22.83 C30.55,27.91 13.40,40.51 10.82,40.32 C8.25,40.13 17.53,27.65 18.52,21.68 C19.52,15.70 14.65,6.45 16.80,4.48Z" fill="hsl(26, 50%, 73%)" stroke="hsl(26, 50%, 15%)" stroke-width="2" transform="translate(9.600000000000001, 9.600000000000001)" />
        </symbol>
    
  </defs>
  
  
            <use href="#symbol-y5w853j5n-pattern" x="0" y="0" width="64" height="64" />
            <use href="#symbol-y5w853j5n-pattern" x="0" y="0" width="64" height="64" transform="translate(64, 0) scale(-1, 1)" />
            <use href="#symbol-y5w853j5n-pattern" x="0" y="0" width="64" height="64" transform="translate(0, 64) scale(1, -1)" />
            <use href="#symbol-y5w853j5n-pattern" x="0" y="0" width="64" height="64" transform="translate(64, 64) scale(-1, -1)" />
        
            <use href="#symbol-omrexbu9h-pattern" x="0" y="0" width="64" height="64" />
            <use href="#symbol-omrexbu9h-pattern" x="0" y="0" width="64" height="64" transform="translate(64, 0) scale(-1, 1)" />
            <use href="#symbol-omrexbu9h-pattern" x="0" y="0" width="64" height="64" transform="translate(0, 64) scale(1, -1)" />
            <use href="#symbol-omrexbu9h-pattern" x="0" y="0" width="64" height="64" transform="translate(64, 64) scale(-1, -1)" />
        
</svg>