<svg width="640" height="480" viewBox="0 0 640 480" xmlns="http://www.w3.org/2000/svg">
  <defs>
    
        <symbol id="symbol-ouzoyiy2i-pattern" viewBox="0 0 640 480">
        <path d="M 320.00,24.00 C 340.77,24.18 362.32,53.68 381.77,70.23 C 401.23,86.77 420.85,103.15 436.71,123.29 C 452.56,143.44 460.36,171.64 476.91,191.09 C 493.46,210.54 536.60,224.30 536.00,240.00 C 535.40,255.70 490.43,266.43 473.29,285.29 C 456.15,304.15 449.53,333.53 433.16,353.16 C 416.78,372.78 393.91,385.91 375.05,403.05 C 356.19,420.19 337.91,456.44 320.00,456.00 C 302.09,455.56 285.43,418.57 267.57,400.43 C 249.71,382.29 232.21,363.79 212.84,347.16 C 193.47,330.53 169.49,318.51 151.35,300.65 C 133.21,282.79 103.20,259.42 104.00,240.00 C 104.80,220.58 139.15,203.15 156.16,184.16 C 173.16,165.16 189.20,145.20 206.03,126.03 C 222.86,106.86 238.14,86.14 257.14,69.14 C 276.13,52.13 299.23,23.82 320.00,24.00" fill="hsl(87, 49%, 67%)" stroke="hsl(87, 49%, 13%)" stroke-width="2" transform="translate(0, 0)" />
        </symbol>
    
        <symbol id="symbol-pmdz4i3w6-pattern" viewBox="0 0 640 480">
        <path d="M273.20,88.25 C319.74,56.00 289.29,45.31 312.82,71.26 C336.36,97.21 398.70,211.81 414.40,243.95 C430.10,276.10 448.00,260.68 407.02,264.14 C343.56,267.61 55.90,294.06 33.60,264.74 C11.30,235.42 226.66,120.50 273.20,88.25Z" fill="hsl(87, 49%, 70%)" stroke="hsl(87, 49%, 13%)" stroke-width="2" transform="translate(96, 72)" />
        </symbol>
    
  </defs>
  <rect width="640" height="480" fill="hsl(87, 49%, 47%)" />
  
            <use href="#symbol-ouzoyiy2i-pattern" x="0" y="0" width="640" height="480" />
            <use href="#symbol-ouzoyiy2i-pattern" x="0" y="0" width="640" height="480" transform="translate(0, 480) scale(1, -1)" />
        
            <use href="#symbol-pmdz4i3w6-pattern" x="0" y="0" width="640" height="480" />
            <use href="#symbol-pmdz4i3w6-pattern" x="0" y="0" width="640" height="480" transform="translate(0, 480) scale(1, -1)" />
        
</svg>